<svg width="42" height="42" viewBox="0 0 42 42" fill="none" xmlns="http://www.w3.org/2000/svg">
<path d="M28.0488 15.5547L21.5791 17.7393H21.5781C21.2045 17.8664 20.8004 17.8664 20.4268 17.7393H20.4258L13.9561 15.5547L13.583 15.4287L13.373 15.7607C12.6154 16.9599 12.1449 18.3214 11.9971 19.7363C11.8493 21.1512 12.0287 22.5814 12.5215 23.9141C13.0144 25.2468 13.8075 26.4457 14.8379 27.415C15.8682 28.3843 17.1074 29.0978 18.458 29.498C19.8089 29.8983 21.2341 29.975 22.6191 29.7207C24.004 29.4664 25.3111 28.8887 26.4365 28.0342C27.562 27.1796 28.475 26.071 29.1035 24.7979C29.6927 23.6043 30.0167 22.2961 30.0547 20.9648L30.0586 20.6982C30.0598 18.9484 29.5641 17.2346 28.6309 15.7607L28.4209 15.4287L28.0488 15.5547ZM20.8418 5.37695L9.56348 9.19434L8.16406 9.66797L9.56445 10.1416L20.8428 13.9531L21.002 14.0068L21.1621 13.9531L32.4502 10.1416L33.8525 9.66797L32.4502 9.19434L21.1631 5.37695L21.002 5.32227L20.8418 5.37695ZM0.501953 9.6543L0.500977 9.6416C0.499749 9.61785 0.499772 9.59406 0.500977 9.57031C0.520829 9.19463 0.652417 8.83396 0.876953 8.53613C1.10134 8.23862 1.40807 8.01748 1.75684 7.90039L1.75781 7.89941L20.4258 1.59668L20.4277 1.5957C20.8008 1.46823 21.2051 1.46813 21.5781 1.5957L21.5791 1.59668L40.2471 7.89941L40.3672 7.93945C40.6801 8.071 40.9523 8.28889 41.1523 8.57031C41.3778 8.88757 41.5 9.26975 41.5 9.66211C41.4999 10.0543 41.3777 10.4358 41.1523 10.7529C40.9269 11.0701 40.6097 11.3065 40.2461 11.4297L32.5664 14.0244L32.0146 14.21L32.2812 14.7266C33.659 17.398 34.0688 20.4754 33.4385 23.4219C32.8081 26.3682 31.1782 28.9959 28.834 30.8486L28.2168 31.3369L28.9209 31.6885C32.0311 33.2402 34.6638 35.6246 36.5342 38.584L36.541 38.5938C36.677 38.7987 36.7717 39.0296 36.8193 39.2725C36.8669 39.5153 36.866 39.7652 36.8174 40.0078C36.7687 40.2506 36.6731 40.4812 36.5361 40.6855C36.3991 40.8899 36.2239 41.0648 36.0205 41.1992C35.8171 41.3336 35.5897 41.4254 35.3516 41.4697C35.1134 41.514 34.8685 41.5103 34.6318 41.458C34.3953 41.4057 34.1706 41.3062 33.9717 41.165C33.7727 41.0239 33.603 40.8436 33.4727 40.6348L33.4697 40.6289L33.1953 40.2158C30.3138 36.0108 25.8874 33.5939 21.0029 33.5938C15.9608 33.5938 11.4059 36.169 8.54492 40.6289L8.54199 40.6348C8.41168 40.8436 8.24192 41.0239 8.04297 41.165C7.84401 41.3062 7.61938 41.4057 7.38281 41.458C7.14619 41.5103 6.90125 41.514 6.66309 41.4697C6.42498 41.4254 6.1975 41.3336 5.99414 41.1992C5.79071 41.0648 5.61554 40.8899 5.47852 40.6855C5.34152 40.4812 5.24593 40.2506 5.19727 40.0078C5.14869 39.7652 5.14777 39.5153 5.19531 39.2725C5.24291 39.0296 5.33762 38.7987 5.47363 38.5938L5.48047 38.584C7.34901 35.6281 9.97806 33.2459 13.084 31.6943L13.7881 31.3428L13.1709 30.8545C10.8267 29.0017 9.19673 26.3741 8.56641 23.4277C7.93608 20.4813 8.34589 17.4039 9.72363 14.7324L9.99023 14.2158L9.43848 14.0303L4.82812 12.4736L4.16895 12.251V25.4258C4.16895 25.9222 3.97347 26.397 3.62891 26.7461C3.28456 27.0949 2.81912 27.29 2.33496 27.29C1.85083 27.29 1.38534 27.0949 1.04102 26.7461C0.696503 26.3971 0.501953 25.9221 0.501953 25.4258V9.6543Z" fill="#9434AE" stroke="white"/>
</svg>
